<svg width="292" height="217" viewBox="0 0 292 217" fill="none" xmlns="http://www.w3.org/2000/svg">
    <path fill-rule="evenodd" clip-rule="evenodd" d="M65.7085 25.3807C63.3057 22.5603 61.6795 19.1039 61.9512 15.2309C62.7342 4.07164 78.2682 6.52652 81.2899 12.1587C84.3116 17.791 83.9525 32.0775 80.0473 33.0842C78.4899 33.4856 75.1721 32.5022 71.7954 30.467L73.9149 45.4615H61.4001L65.7085 25.3807Z" fill="#B28B67"/>
    <path fill-rule="evenodd" clip-rule="evenodd" d="M75.7706 12.9756C74.0724 13.9256 72.8637 15.7057 71.4089 18.0406C71.0545 17.9014 70.6686 17.8249 70.2648 17.8249C68.5369 17.8249 67.1362 19.2256 67.1362 20.9536C67.1362 21.8307 67.4971 22.6236 68.0787 23.1917C67.3547 24.2135 66.5434 25.281 65.6137 26.3824C62.1444 24.301 59.5639 18.2344 62.8765 12.378C65.7266 0.647046 81.8766 7.92829 84.9837 5.94983C85.6629 10.2068 83.4723 13.6392 75.7706 12.9756Z" fill="#191847"/>
    <path fill-rule="evenodd" clip-rule="evenodd" d="M60.8962 90.731L86.4897 155.509L103.655 210.273H110.434L84.1912 90.731L60.8962 90.731Z" fill="#997659"/>
    <path fill-rule="evenodd" clip-rule="evenodd" d="M55.7425 90.731C55.47 113.494 51.4954 144.142 50.8604 145.56C50.4371 146.506 35.823 158.536 7.01807 181.649L11.6867 186.645C45.6738 166.829 63.4538 155.599 65.0265 152.956C67.3857 148.991 75.0662 112.508 81.2326 90.731H55.7425Z" fill="#B28B67"/>
    <path fill-rule="evenodd" clip-rule="evenodd" d="M6.39369 179.982C4.82574 180.536 3.74564 181.061 3.15339 181.558C2.43306 182.163 1.48262 183.165 0.302059 184.564C1.00323 185.4 7.30482 192.91 19.2068 207.094C21.6336 206.056 22.395 204.841 21.4909 203.45C20.5868 202.059 19.8468 200.894 19.2711 199.955L15.1527 185.567C15.0734 185.29 14.7847 185.13 14.5079 185.209C14.5031 185.21 14.4984 185.212 14.4937 185.213L12.2961 185.91C10.7714 185.199 9.70279 184.479 9.09019 183.749C8.59246 183.156 8.14466 182.136 7.74678 180.689L7.74678 180.689C7.59409 180.133 7.0201 179.807 6.46472 179.959C6.44079 179.966 6.41709 179.973 6.39369 179.982Z" fill="#E4E4E4"/>
    <path fill-rule="evenodd" clip-rule="evenodd" d="M100.88 207.745C100.296 209.302 100.005 210.467 100.005 211.24C100.005 212.181 100.161 213.553 100.475 215.357C101.565 215.357 111.369 215.357 129.885 215.357C130.649 212.83 130.208 211.466 128.562 211.265C126.915 211.063 125.547 210.881 124.458 210.719L110.788 204.625C110.525 204.508 110.217 204.626 110.1 204.889C110.098 204.893 110.096 204.898 110.094 204.902L109.215 207.034C107.691 207.745 106.452 208.101 105.499 208.101C104.725 208.101 103.655 207.788 102.291 207.163L102.291 207.163C101.767 206.923 101.148 207.152 100.908 207.676C100.898 207.699 100.888 207.721 100.88 207.745Z" fill="#E4E4E4"/>
    <path fill-rule="evenodd" clip-rule="evenodd" d="M78.1041 204.632L110.332 201.135L86.4472 90.731H57.582L78.1041 204.632Z" fill="#69A1AC"/>
    <path fill-rule="evenodd" clip-rule="evenodd" d="M13.6843 173.589L34.8238 198.611C57.0896 174.293 70.0706 158.425 73.7669 151.008C77.4631 143.591 80.7858 123.499 83.735 90.731H51.238C49.627 119.559 48.5411 134.643 47.9802 135.985C47.4194 137.326 35.9874 149.861 13.6843 173.589Z" fill="#89C5CC"/>
    <path fill-rule="evenodd" clip-rule="evenodd" d="M107.943 84.4278L123.268 99.2814C127.727 101.171 131.381 103.258 134.229 105.541C134.869 106.309 135.566 107.78 132.553 107.121C129.54 106.463 126.34 105.906 125.774 106.879C125.207 107.853 126.876 109.345 125.83 110.619C125.132 111.469 122.785 108.767 118.789 102.513L102.854 93.1781L107.943 84.4278ZM33.0054 70.9847L44.8514 71.0289C35.8292 100.072 31.0398 115.278 30.4835 116.648C29.2317 119.73 31.8806 124.424 33.0135 126.947C29.324 128.587 29.7171 122.513 25.0629 124.664C20.8148 126.628 17.5832 130.186 12.6751 127.177C12.0717 126.807 11.4104 125.414 13.0081 124.325C16.9885 121.614 22.7244 116.868 23.4995 115.306C24.5563 113.175 27.725 98.4016 33.0054 70.9847Z" fill="#B28B67"/>
    <path fill-rule="evenodd" clip-rule="evenodd" d="M69.1023 37.5971L73.7802 36.7999C81.1493 62.6811 119.012 80.3228 121.336 89.9979C122.188 93.546 119.618 95.3396 120.946 96.4203L114.865 100.843C113.836 99.6491 111.638 101.832 107.05 100.305C102.461 98.7779 69.1023 68.2426 69.1023 37.5971Z" fill="#DB2721"/>
    <path fill-rule="evenodd" clip-rule="evenodd" d="M76.9713 41.0379C76.432 75.3027 96.3681 84.0431 91.9275 97.7887C88.2604 109.14 53.1611 121.342 47.0873 110.215C44.6288 105.711 43.5133 100.264 43.3867 94.342C41.8344 98.8918 40.6067 102.809 39.7036 106.093C38.1456 111.758 32.1056 112.658 32.1056 114.841L24.1481 112.658C24.6878 109.693 20.9364 108.25 21.9423 101.626C26.449 71.9468 38.558 50.4335 58.269 37.0858L58.4774 34.1243C58.5601 32.9761 59.5561 32.1103 60.7046 32.1882L75.4312 33.2114C76.5805 33.2893 77.4474 34.2857 77.3675 35.4348C77.3675 35.4355 77.3674 35.4361 77.3655 35.4366L76.9713 41.0379Z" fill="#FF4133"/>
    <path fill-rule="evenodd" clip-rule="evenodd" d="M245.869 70.2452C248.173 67.5408 249.732 64.2266 249.471 60.5128C248.721 49.8126 233.825 52.1665 230.928 57.5671C228.031 62.9676 228.375 76.6666 232.12 77.6318C233.613 78.0168 236.794 77.0738 240.032 75.1223L238 89.5001H250L245.869 70.2452Z" fill="#B28B67"/>
    <path fill-rule="evenodd" clip-rule="evenodd" d="M225.612 50.0803C225.86 49.2068 226.529 48.4589 227.43 48.237C227.648 48.1832 227.874 48.1615 228.098 48.1706C228.179 48.1738 228.202 48.197 228.239 48.1406C228.267 48.0988 228.268 47.9967 228.279 47.9476C228.315 47.7948 228.36 47.644 228.415 47.4971C228.604 46.9959 228.92 46.5523 229.302 46.1787C230.016 45.4797 230.981 44.9973 231.984 44.91C232.533 44.8622 233.077 44.9514 233.596 45.1299C233.865 45.2223 234.125 45.3373 234.379 45.4645C234.455 45.5028 234.703 45.6904 234.779 45.6782C234.864 45.6648 235.034 45.4545 235.103 45.4017C235.954 44.749 237.004 44.4924 238.064 44.5C239.26 44.5091 240.411 44.5688 241.409 45.2979C241.62 45.4523 241.821 45.6213 242.013 45.7992C242.114 45.8929 242.211 45.9901 242.304 46.0913C242.361 46.1524 242.415 46.2148 242.468 46.279C242.557 46.3878 242.543 46.4236 242.668 46.3476C243.148 46.056 243.704 45.9196 244.265 45.9884C244.597 46.0294 244.921 46.1292 245.229 46.2607C245.333 46.3055 245.575 46.484 245.687 46.4857C245.798 46.4874 246.036 46.322 246.15 46.2799C246.766 46.0526 247.43 45.9966 248.077 46.1016C248.744 46.21 249.4 46.4763 249.965 46.8443C250.237 47.0213 250.475 47.2174 250.665 47.4806C250.748 47.5943 250.822 47.7145 250.915 47.8199C250.97 47.8816 251.078 47.9449 251.107 48.023C251.09 47.9762 251.837 47.688 251.908 47.6696C252.284 47.5715 252.666 47.5914 253.034 47.7125C253.726 47.9402 254.321 48.4508 254.81 48.9744C255.061 49.2433 255.281 49.5406 255.468 49.8573C255.557 50.009 255.639 50.165 255.714 50.3244C255.75 50.4016 255.774 50.4982 255.822 50.5677C255.884 50.6573 255.925 50.659 256.036 50.6981C256.603 50.8965 257.119 51.2323 257.512 51.6861C257.91 52.1451 258.168 52.7105 258.276 53.3058C258.282 53.3409 258.286 53.4862 258.307 53.5052C258.335 53.5314 258.449 53.5198 258.492 53.5248C258.641 53.5424 258.789 53.5684 258.935 53.603C259.205 53.6668 259.467 53.7606 259.715 53.8834C260.682 54.3618 261.373 55.2588 261.712 56.2681C262.067 57.3273 262.061 58.5408 261.636 59.5803C261.568 59.7482 261.486 59.9111 261.39 60.0653C261.332 60.1599 261.313 60.1602 261.351 60.2595C261.393 60.3699 261.471 60.4773 261.522 60.5852C261.687 60.9374 261.802 61.311 261.875 61.6926C261.994 62.3184 262.054 62.9762 261.936 63.6068C261.881 63.8997 261.786 64.1859 261.64 64.4467C261.566 64.5797 261.479 64.7058 261.381 64.8225C261.33 64.8831 261.276 64.941 261.219 64.9964C261.187 65.028 261.145 65.0557 261.117 65.0911C261.05 65.1773 261.036 65.1064 261.071 65.2331C261.119 65.4101 261.229 65.5847 261.296 65.757C261.365 65.9345 261.428 66.1144 261.485 66.2962C261.601 66.6641 261.699 67.0387 261.76 67.4198C261.878 68.1514 261.857 68.931 261.511 69.6024C261.363 69.8897 261.151 70.1416 260.893 70.3376C260.767 70.4335 260.631 70.5161 260.488 70.584C260.414 70.6189 260.32 70.6339 260.287 70.7051C260.25 70.7816 260.304 70.9335 260.316 71.0191C260.423 71.7632 260.476 72.5445 260.255 73.2737C260.051 73.9454 259.603 74.5384 259.02 74.931C257.89 75.6926 256.367 75.6497 255.18 75.0399C254.871 74.881 254.581 74.6836 254.323 74.4509C253.665 75.3361 252.312 75.3081 251.351 75.0559C250.154 74.7416 249.193 73.909 248.639 72.815C247.882 73.7365 246.294 73.4375 245.769 72.4379C245.64 72.1932 245.564 71.9236 245.527 71.6507C245.507 71.5072 245.52 71.3625 245.505 71.2201C245.486 71.0388 245.365 70.8625 245.295 70.687C245.159 70.3455 245.075 69.9928 245.071 69.6244C245.07 69.4321 245.094 69.2447 245.112 69.0539C245.129 68.8822 245.081 68.7221 245.054 68.5526C245.361 68.6032 245.735 68.5204 246.025 68.4313C246.309 68.344 246.574 68.1138 246.775 67.9036C247.24 67.4156 247.524 66.7758 247.719 66.139C248.146 64.7413 247.971 63.0645 246.565 62.2975C245.91 61.9401 243.948 61.9413 243.168 62.1179C242.348 62.3036 241.418 64.1132 241.372 64.2833C241.344 64.3886 241.358 64.5189 241.262 64.589C241.049 64.7432 240.699 64.4756 240.542 64.3435C240.271 64.1155 240.078 63.8122 239.911 63.5047C239.547 62.8349 239.254 62.1165 239.046 61.3832C238.886 60.8178 238.784 60.2348 238.575 59.6839C238.367 59.1356 238.04 58.6456 237.53 58.3351C236.976 57.9972 236.34 57.8193 235.732 57.6069C235.128 57.3965 234.535 57.1394 234.068 56.6929C233.965 56.5947 233.865 56.4904 233.782 56.3748C233.717 56.2836 233.652 56.1089 233.553 56.051C233.398 55.961 233.172 56.1951 233.038 56.28C232.378 56.6994 231.827 57.2842 231.383 57.923C230.941 58.5584 230.579 59.1698 230.284 59.8793C230.066 60.4055 229.929 61.0793 229.545 61.5106C229.374 61.7031 228.098 61.8196 227.685 61.6515C227.272 61.4834 226.809 61.0469 226.671 60.7733C226.529 60.4934 226.495 60.1858 226.555 59.8793C226.591 59.6989 226.664 59.5305 226.704 59.3534C226.737 59.2046 226.768 59.0639 226.84 58.9276C226.977 58.6694 227.212 58.4837 227.495 58.4061C227.2 58.1348 226.957 57.8102 226.788 57.4473C226.613 57.0704 226.464 56.612 226.422 56.1982C226.388 55.8622 226.44 55.514 226.624 55.2252C226.817 54.9223 227.159 54.7246 227.455 54.5357C227.003 54.1822 226.617 53.7522 226.299 53.2762C225.68 52.3506 225.298 51.1838 225.612 50.0803Z" fill="#191847"/>
    <path fill-rule="evenodd" clip-rule="evenodd" d="M283.5 152H226C221.582 152 218 155.582 218 160V206C218 210.418 221.582 214 226 214H283.5C287.918 214 291.5 210.418 291.5 206V160C291.5 155.582 287.918 152 283.5 152ZM275.5 166C276.604 166 277.5 166.895 277.5 168V198C277.5 199.105 276.604 200 275.5 200H234C232.895 200 232 199.105 232 198V168C232 166.895 232.895 166 234 166H275.5Z" fill="#C5CFD6"/>
    <path fill-rule="evenodd" clip-rule="evenodd" d="M182.245 212.33C188.652 198.151 193.285 185.804 195.144 179.29C198.329 168.136 200.751 158.322 201.363 154.656C202.823 145.916 190.132 145.407 188.455 149.751C185.916 156.325 181.483 177.926 176.158 210.554L182.245 212.33ZM256.556 167.832C250.678 165.508 230.094 158.238 220.166 156.181C217.313 155.59 214.548 155.04 211.949 154.544C204.222 153.069 200.219 167.009 207.661 168.08C226.194 170.747 252.468 173.502 254.717 173.811C257.868 174.244 260.25 169.292 256.556 167.832Z" fill="#B28B67"/>
    <path fill-rule="evenodd" clip-rule="evenodd" d="M207.206 150.708L239 134.523V131H235.219C204.46 138.838 188.742 143.861 188.065 146.069C188.058 146.093 188.052 146.117 188.045 146.14C188.03 146.161 188.015 146.181 188 146.202C181.904 154.585 178.253 195.514 177.055 198.578L188.736 200.321C193.204 183.752 207.5 172.209 207.12 152.365C207.223 151.783 207.248 151.23 207.206 150.708Z" fill="#1F28CF"/>
    <path fill-rule="evenodd" clip-rule="evenodd" d="M236.358 160.32C239.267 159.738 241.946 159.218 244.239 158.816C259.045 156.219 263.363 148.293 260.81 131H233.529C229.073 132.28 205.913 141.993 193.897 147.158C185.944 150.577 188.451 162.902 192.955 166.11C192.979 166.307 193.06 166.44 193.204 166.5C217.432 176.541 236.598 171.273 243 172.956L245.961 163.614L236.358 160.32Z" fill="#2B44FF"/>
    <path fill-rule="evenodd" clip-rule="evenodd" d="M254.546 166.347C256.133 166.499 257.26 166.737 257.926 167.062C258.737 167.457 259.854 168.169 261.277 169.197C260.818 170.138 256.697 178.587 248.914 194.544C246.415 194.141 245.425 193.187 245.944 191.683C246.462 190.18 246.88 188.924 247.198 187.917L247.692 173.575C247.702 173.299 247.933 173.083 248.209 173.092C248.214 173.093 248.219 173.093 248.223 173.093L250.43 173.232C251.683 172.217 252.511 171.299 252.911 170.478C253.237 169.81 253.417 168.757 253.451 167.318L253.451 167.318C253.464 166.766 253.923 166.329 254.475 166.343C254.499 166.343 254.522 166.345 254.546 166.347Z" fill="#E4E4E4"/>
    <path fill-rule="evenodd" clip-rule="evenodd" d="M185.161 209.701C185.72 211.194 186 212.312 186 213.053C186 213.955 185.85 215.27 185.549 217C184.503 217 175.103 217 157.348 217C156.615 214.577 157.038 213.269 158.617 213.076C160.196 212.883 161.508 212.709 162.552 212.553L175.66 206.71C175.912 206.597 176.208 206.71 176.32 206.963C176.322 206.967 176.324 206.971 176.326 206.976L177.168 209.019C178.63 209.701 179.818 210.042 180.731 210.042C181.474 210.042 182.499 209.743 183.808 209.143L183.808 209.143C184.31 208.913 184.903 209.133 185.133 209.635C185.143 209.657 185.152 209.679 185.161 209.701Z" fill="#E4E4E4"/>
    <path fill-rule="evenodd" clip-rule="evenodd" d="M209.978 123.061L195.814 136.879C191.693 138.637 188.316 140.578 185.684 142.702C185.092 143.416 184.447 144.784 187.232 144.172C190.017 143.56 192.974 143.041 193.498 143.947C194.021 144.853 192.479 146.241 193.446 147.426C194.091 148.216 196.26 145.703 199.953 139.885L214.682 131.201L209.978 123.061ZM272.846 125.01L262.397 125.051C268.849 145.878 272.332 156.929 272.846 158.203C274.003 161.07 271.555 165.437 270.508 167.784C273.918 169.31 273.554 163.659 277.856 165.66C281.782 167.487 284.769 170.796 289.305 167.997C289.863 167.653 290.474 166.357 288.998 165.345C285.319 162.822 280.017 158.407 279.301 156.954C278.324 154.973 276.172 144.324 272.846 125.01Z" fill="#B28B67"/>
    <path fill-rule="evenodd" clip-rule="evenodd" d="M243.152 81.1661L238.829 80.4246C231.385 99.0197 218.389 115.916 199.841 131.113L213.857 148.141C232.403 126.502 243.835 104.178 243.152 81.1661Z" fill="#191847"/>
    <path fill-rule="evenodd" clip-rule="evenodd" d="M262 135.5H223.5C232.419 113.813 236.879 95.3895 236.879 80.2305L248.493 78.5001C257.62 93.1793 260.197 111.252 262 135.5Z" fill="#DDE3E9"/>
    <path fill-rule="evenodd" clip-rule="evenodd" d="M248.739 78.5083C248.737 78.5056 248.736 78.5029 248.734 78.5001H247.976C247.069 78.5314 245.687 78.5876 243.831 78.669L241.025 86.6886C240.728 96.4663 238.994 116.171 235.824 145.803H261.062C260.996 147.85 260.886 149.915 260.734 152H279.5C276.693 120.332 266.442 95.8321 248.748 78.5001L248.739 78.5083V78.5083Z" fill="#2F3676"/>
    <path fill-rule="evenodd" clip-rule="evenodd" d="M259.395 119.617C258.677 132.374 256.878 141.169 254 146H261.055C261.364 136.822 260.811 128.027 259.395 119.617V119.617Z" fill="black" fill-opacity="0.1"/>
    <path fill-rule="evenodd" clip-rule="evenodd" d="M255.444 130.5L243 124.715V130.5H255.444Z" fill="white" fill-opacity="0.2"/>
    <path d="M181.5 53C196.136 53 208 41.1355 208 26.5C208 11.8644 196.136 0 181.5 0C166.864 0 155 11.8644 155 26.5C155 41.1355 166.864 53 181.5 53Z" fill="#F2F2F2"/>
    <path d="M181.5 7.00012C182.328 7.00012 183 6.32855 183 5.50012C183 4.67169 182.328 4.00012 181.5 4.00012C180.671 4.00012 180 4.67169 180 5.50012C180 6.32855 180.671 7.00012 181.5 7.00012Z" fill="black" fill-opacity="0.1"/>
    <path d="M160.5 28C161.328 28 162 27.3284 162 26.5C162 25.6716 161.328 25 160.5 25C159.671 25 159 25.6716 159 26.5C159 27.3284 159.671 28 160.5 28Z" fill="black" fill-opacity="0.1"/>
    <path d="M202.5 28C203.328 28 204 27.3284 204 26.5C204 25.6716 203.328 25 202.5 25C201.671 25 201 25.6716 201 26.5C201 27.3284 201.671 28 202.5 28Z" fill="black" fill-opacity="0.1"/>
    <path d="M181.5 49C182.328 49 183 48.3284 183 47.5C183 46.6716 182.328 46 181.5 46C180.671 46 180 46.6716 180 47.5C180 48.3284 180.671 49 181.5 49Z" fill="black" fill-opacity="0.1"/>
    <path fill-rule="evenodd" clip-rule="evenodd" d="M181.5 8.5L182.5 26H180.5L181.5 8.5Z" fill="#AFB9C5"/>
    <path fill-rule="evenodd" clip-rule="evenodd" d="M190.349 35.3493L181.157 27.5711L182.571 26.1569L190.349 35.3493Z" fill="#AFB9C5"/>
    <path d="M181.5 28.5C182.605 28.5 183.5 27.6046 183.5 26.5C183.5 25.3954 182.605 24.5 181.5 24.5C180.395 24.5 179.5 25.3954 179.5 26.5C179.5 27.6046 180.395 28.5 181.5 28.5Z" fill="#C5CFD6"/>
    <path fill-rule="evenodd" clip-rule="evenodd" d="M130.709 194.728C130.709 205.371 131.549 214 142.823 214C154.097 214 154.937 205.371 154.937 194.728" fill="#F2F2F2"/>
    <path fill-rule="evenodd" clip-rule="evenodd" d="M146.177 188.087C145.763 188.801 145.395 189.53 145.069 190.27C145.058 188.747 145.142 187.212 145.372 185.656C145.766 182.992 146.366 180.341 146.93 177.694C147.336 175.792 147.31 172.376 148.85 170.86C149.272 170.533 149.373 171.175 149.373 171.454C149.379 171.513 149.372 170.316 148.963 170.524C146.527 171.782 145.738 175.737 144.958 177.717C143.821 180.607 142.853 183.562 142.455 186.569C142.354 187.328 142.299 188.088 142.286 188.846C142.204 188.643 142.126 188.439 142.04 188.237C140.634 184.94 138.737 181.723 136.372 178.757C135.789 178.027 128.467 170.825 127.894 171.927C127.95 172.087 128.069 172.22 128.249 172.326C128.26 172.338 128.26 172.331 128.254 172.313C128.684 173.008 129.907 174.081 130.288 174.689C131.246 176.221 131.991 177.847 132.748 179.441C134.347 182.811 135.831 186.214 137.269 189.625C137.604 190.419 137.953 191.209 138.309 191.997C134.638 186.702 129.741 181.895 123 179.143C125.302 180.315 126.812 182.519 128.367 184.206C130.242 186.241 132.218 188.222 134.096 190.255C136.313 192.653 138.92 195.179 141.052 197.833C143.117 202.168 145.123 206.507 146.362 211.064C145.854 209.49 146.322 207.314 146.235 205.662C146.166 204.346 146.012 203.042 145.802 201.74C146.062 202.327 146.287 202.915 146.388 203.462C146.295 202.545 146.188 201.634 146.074 200.727C146.368 199.879 146.658 199.087 146.854 198.435C147.856 195.089 149.049 191.801 150.675 188.596C152.179 185.632 153.904 182.705 155.784 179.867C156.66 178.544 157.549 177.226 158.433 175.906C159.011 175.042 159.561 173.658 160.366 172.83C155.163 177.587 149.478 182.379 146.177 188.087Z" fill="#F2F2F2"/>
    </svg>
    