<svg width="80" height="97" viewBox="0 0 80 97" fill="none" xmlns="http://www.w3.org/2000/svg">
    <path fill-rule="evenodd" clip-rule="evenodd" d="M46.9367 10.8522C48.3079 9.24277 49.2359 7.27037 49.0808 5.06024C48.634 -1.30777 39.7695 0.0931078 38.0452 3.30713C36.3209 6.52116 36.5258 14.6738 38.7543 15.2482C39.643 15.4773 41.5363 14.9161 43.4632 13.7547L42.2537 22.3114H49.3953L46.9367 10.8522Z" fill="#B28B67"/>
    <path fill-rule="evenodd" clip-rule="evenodd" d="M43.1065 5.76353C42.8332 9.5715 42.11 11.4755 40.9372 11.4755C39.1777 11.4755 37.685 10.3585 36.913 10.3585C36.3502 10.3585 36.4758 11.0628 36.8489 11.5849C37.1566 12.0157 38.6554 12.4309 38.6554 13.0988C38.6554 13.7667 37.4712 13.25 37.4712 13.6461C37.4712 14.3013 37.2631 15.5332 38.4003 15.5332C39.5511 15.5332 42.8508 15.1138 43.4163 13.4057C43.7812 12.3034 44.0172 10.0192 44.1241 6.55305C44.194 6.54475 44.265 6.54049 44.3371 6.54049C45.3231 6.54049 46.1224 7.33983 46.1224 8.32587C46.1224 8.82644 45.9164 9.27889 45.5846 9.60308C45.9977 10.1862 46.4607 10.7953 46.9912 11.4239C48.9843 10.2281 50.4633 6.72765 48.5147 3.36497C47.9761 1.71764 46.7568 0.837747 45.3168 0.429182C44.1504 -0.0587601 42.9394 -0.113776 41.9173 0.178741C39.9135 0.350611 38.1242 0.961614 37.6171 1.32447C37.6171 3.22151 37.9847 3.78436 41.1243 3.73474C41.8958 4.14216 42.4888 4.84374 43.1065 5.76353Z" fill="#191847"/>
    <path fill-rule="evenodd" clip-rule="evenodd" d="M14.0199 52.3938C11.8834 49.4962 6.54302 51.4144 6.54623 53.8131C6.55468 60.1112 12.3021 90.0107 12.6022 91.8984C12.9023 93.7861 16.1169 94.4037 16.3041 92.045C16.6019 88.292 17.1553 75.2815 16.6016 69.2288C16.4399 67.4608 16.2694 65.7519 16.0976 64.1509C19.1183 69.5774 23.7115 77.2473 29.8773 87.1606L33.3042 85.5949C30.6132 76.7287 28.4065 70.4694 26.6843 66.817C23.7355 60.5631 20.9705 55.2076 19.8069 53.3211C18.2697 50.8292 15.7765 51.16 14.0199 52.3938Z" fill="#B28B67"/>
    <path fill-rule="evenodd" clip-rule="evenodd" d="M33.0591 80.6712L21.2971 52.8079C18.4794 48.2752 10.5793 53.7302 11.5402 56.3591C13.7217 62.3275 24.8166 81.6498 25.4666 83.428L33.0591 80.6712Z" fill="#1F28CF"/>
    <path fill-rule="evenodd" clip-rule="evenodd" d="M6.24881 55.9886C6.24881 63.8863 9.71059 82.4508 9.71297 84.1899L18.099 83.9071C16.6331 67.7664 16.0149 59.6414 16.2444 59.532C16.7609 59.2859 37.415 62.3906 43.6095 62.625C52.5421 62.9631 56.2373 57.4831 56.5371 47.0837H39.2345C24.4392 48.8498 14.7151 50.0782 10.0622 50.7687C7.07429 51.2122 6.24881 53.813 6.24881 55.9886Z" fill="#2B44FF"/>
    <path fill-rule="evenodd" clip-rule="evenodd" d="M24.8291 79.16L22.9089 79.6388C20.3575 80.2749 18.8049 82.8589 19.4411 85.4102L20.017 87.72C20.6531 90.2713 23.237 91.8239 25.7883 91.1878L27.7086 90.709C30.26 90.0729 31.8125 87.489 31.1764 84.9376L30.6005 82.6278C29.9644 80.0765 27.3805 78.5239 24.8291 79.16ZM26.8184 81.434C27.4563 81.275 28.1022 81.6631 28.2613 82.301L29.2644 86.3245C29.4235 86.9623 29.0353 87.6083 28.3975 87.7673L23.7991 88.9138C23.1612 89.0729 22.5152 88.6847 22.3562 88.0469L21.353 84.0234C21.194 83.3855 21.5821 82.7396 22.22 82.5805L26.8184 81.434Z" fill="#C5CFD6"/>
    <path fill-rule="evenodd" clip-rule="evenodd" d="M16.7594 87.5975C17.0923 88.4861 17.2588 89.1511 17.2588 89.5922C17.2588 90.1288 17.1694 90.9119 16.9906 91.9413C16.3681 91.9413 10.7737 91.9413 0.20747 91.9413C-0.228664 90.4995 0.023098 89.7211 0.962755 89.6061C1.90241 89.4911 2.683 89.3873 3.30453 89.2947L11.1052 85.8171C11.2553 85.7502 11.4312 85.8176 11.4981 85.9677C11.4993 85.9703 11.5004 85.9729 11.5014 85.9755L12.0029 87.1918C12.8727 87.5977 13.5796 87.8006 14.1235 87.8006C14.5653 87.8006 15.1755 87.6221 15.9541 87.2652L15.9541 87.2652C16.2529 87.1283 16.6062 87.2594 16.7431 87.5582C16.749 87.5711 16.7545 87.5842 16.7594 87.5975Z" fill="#E4E4E4"/>
    <path d="M2.23153 91.9413H15.9195C16.4947 91.9413 16.9609 92.4076 16.9609 92.9828C16.9609 93.558 16.4947 94.0243 15.9195 94.0243H2.23153C1.65634 94.0243 1.19005 93.558 1.19005 92.9828C1.19005 92.4076 1.65634 91.9413 2.23153 91.9413Z" fill="#2F3676"/>
    <path fill-rule="evenodd" clip-rule="evenodd" d="M57.4301 48.7946H25.5908C23.9474 48.7946 22.6151 50.1268 22.6151 51.7702V66.3508H59.2155C59.8729 66.3508 60.4058 65.8179 60.4058 65.1606V51.7702C60.4058 50.1268 59.0735 48.7946 57.4301 48.7946Z" fill="#2F3676"/>
    <path fill-rule="evenodd" clip-rule="evenodd" d="M25.5903 48.7946H24.9376C23.4802 48.7946 22.2374 49.85 22.0012 51.2881L15.4732 91.0486H18.6528" fill="#2F3676"/>
    <path d="M16.9615 96.9999C14.0034 96.9999 11.6053 94.6019 11.6053 91.6438C11.6053 88.6857 14.0034 86.2876 16.9615 86.2876C19.9196 86.2876 22.3176 88.6857 22.3176 91.6438C22.3176 94.6019 19.9196 96.9999 16.9615 96.9999Z" fill="#191847"/>
    <path fill-rule="evenodd" clip-rule="evenodd" d="M56.537 96.4048C69.0268 96.4048 79.1519 86.2797 79.1519 73.7899C79.1519 61.3001 69.0268 51.175 56.537 51.175C44.0472 51.175 33.9221 61.3001 33.9221 73.7899C33.9221 86.2797 44.0472 96.4048 56.537 96.4048ZM56.537 92.2389C46.3479 92.2389 38.088 83.979 38.088 73.7899C38.088 63.6008 46.3479 55.3409 56.537 55.3409C66.7261 55.3409 74.986 63.6008 74.986 73.7899C74.986 83.979 66.7261 92.2389 56.537 92.2389Z" fill="#191847"/>
    <path d="M55.347 54.1507H57.7275V93.4291H55.347V54.1507Z" fill="#191847"/>
    <path d="M42.2295 60.3237L43.0711 59.482C43.3035 59.2496 43.6804 59.2496 43.9128 59.482L70.8452 86.4144C71.0776 86.6469 71.0776 87.0237 70.8452 87.2561L70.0035 88.0977C69.7711 88.3301 69.3943 88.3301 69.1619 88.0977L42.2295 61.1653C41.9971 60.9329 41.9971 60.5561 42.2295 60.3237Z" fill="#191847"/>
    <path d="M36.8979 74.385V73.1948C36.8979 72.8661 37.1644 72.5996 37.4931 72.5996H75.5813C75.9099 72.5996 76.1764 72.8661 76.1764 73.1948V74.385C76.1764 74.7137 75.9099 74.9802 75.5813 74.9802H37.4931C37.1644 74.9802 36.8979 74.7137 36.8979 74.385Z" fill="#191847"/>
    <path d="M43.0711 88.0978L42.2294 87.2561C41.997 87.0237 41.997 86.6469 42.2294 86.4145L69.1618 59.4821C69.3942 59.2497 69.771 59.2497 70.0035 59.4821L70.8451 60.3237C71.0775 60.5561 71.0775 60.9329 70.8451 61.1653L43.9127 88.0978C43.6803 88.3302 43.3035 88.3302 43.0711 88.0978Z" fill="#191847"/>
    <path fill-rule="evenodd" clip-rule="evenodd" d="M26.5481 43.2037L17.0563 50.1738C14.482 50.8684 12.3312 51.7327 10.6039 52.7666C10.1959 53.1383 9.70282 53.8912 11.3949 53.7611C13.087 53.631 14.8727 53.5702 15.1061 54.1474C15.3396 54.7245 14.3157 55.4147 14.7876 56.1934C15.1022 56.7126 16.5887 55.4109 19.247 52.2882L28.6464 48.3906L26.5481 43.2037ZM62.9917 43.4443L56.7734 43.4687C60.6129 55.8634 62.6857 62.4399 62.9917 63.1983C63.6803 64.9047 62.2232 67.5035 61.6001 68.9C63.6295 69.8081 63.4133 66.4451 65.9733 67.6361C68.31 68.7232 70.0875 70.693 72.7872 69.0272C73.1191 68.8224 73.4828 68.0513 72.604 67.4487C70.4146 65.9475 67.2596 63.32 66.8333 62.4552C66.2519 61.2758 64.9714 54.9388 62.9917 43.4443Z" fill="#B28B67"/>
    <path fill-rule="evenodd" clip-rule="evenodd" d="M45.3201 17.3515L42.747 16.9102C33.2002 25.1573 29.2789 41.001 17.5768 49.394L20.3934 52.8853C40.6944 50.3717 45.7262 31.0462 45.3201 17.3515Z" fill="#E87613"/>
    <path fill-rule="evenodd" clip-rule="evenodd" d="M56.5369 49.6872C46.2198 49.6872 38.6308 49.6872 33.7698 49.6872C32.7295 49.6872 32.9255 48.185 33.0759 47.427C34.8116 38.6785 41.5869 29.248 41.5869 16.7947L48.154 15.7649C53.5858 24.5009 55.4642 35.2567 56.5369 49.6872Z" fill="#DDE3E9"/>
    <path fill-rule="evenodd" clip-rule="evenodd" d="M56.3541 24.352C57.3079 24.0778 58.0632 23.4384 58.62 22.4337C61.0203 18.1026 60.1534 15.718 57.5883 14.9342C55.0231 14.1504 52.7356 15.7649 48.6486 15.7649C48.4263 15.7649 48.2227 15.7789 48.0378 15.8067L45.982 15.924C40.0836 35.9145 38.4568 49.2519 41.1017 55.9361H59.0212C60.0829 58.4117 61.0988 60.4947 62.0691 62.1849H66.9518C67.4113 47.3267 63.8788 34.7157 56.3541 24.352Z" fill="#FF9B21"/>
    <path fill-rule="evenodd" clip-rule="evenodd" d="M55.1189 45.6694C54.5554 50.3847 53.6394 53.8069 52.371 55.9361H59.021C57.7825 53.0482 56.4819 49.626 55.1189 45.6694Z" fill="black" fill-opacity="0.1"/>
    </svg>
    