<svg width="25" height="29" viewBox="0 0 25 29" fill="none" xmlns="http://www.w3.org/2000/svg">
<path d="M25 10.0981C25 7.98279 24.2878 6.23195 23.0736 4.85629C23.2054 4.55972 23.3407 4.15953 23.4083 3.65929C23.5686 2.51588 23.3834 1.82984 23.2267 1.15809C23.0665 0.486338 22.8849 0.0146834 22.8849 0.0146834C22.8849 0.0146834 22.041 -0.0710719 21.3324 0.171902C20.6202 0.414875 20.0078 0.600679 19.1247 1.1295C18.7116 1.37605 18.295 1.64761 17.9639 1.86914C16.5574 1.4761 15.012 1.276 13.3847 1.276C11.7432 1.276 10.1835 1.4761 8.76636 1.87272C8.4352 1.65118 8.01859 1.37962 7.60198 1.1295C6.7189 0.600679 6.10644 0.414875 5.39429 0.171902C4.68213 -0.0710719 3.84178 0.0146834 3.84178 0.0146834C3.84178 0.0146834 3.65662 0.486338 3.49995 1.15809C3.34327 1.82984 3.15811 2.51588 3.31479 3.65929C3.386 4.17382 3.52843 4.57758 3.66374 4.87773C2.46732 6.24267 1.7694 7.98636 1.7694 10.0945C1.7694 15.5686 4.71418 18.0662 10.0838 18.7272C9.45715 19.3883 9.03698 20.2422 8.89454 21.1891C8.54203 21.3428 8.1361 21.4893 7.74441 21.5464C6.74027 21.7001 5.67559 21.5464 5.16284 21.2427C4.65008 20.939 4.04119 20.253 3.58541 19.5848C3.20084 19.0202 2.64536 18.3663 2.14329 18.1377C1.47742 17.8304 0.832915 17.716 0.473275 17.7732C0.110074 17.8304 -0.0572831 18.0983 0.0174942 18.2877C0.0922705 18.4807 0.45191 18.7665 0.832914 18.9738C1.21392 19.1846 1.80145 19.7563 2.14329 20.3101C2.52429 20.9247 2.59907 21.282 2.9231 21.9859C3.15099 22.4826 3.92724 23.1007 4.47916 23.433C4.95631 23.7189 5.90348 23.8833 6.92899 23.9297C7.28507 23.9476 8.12185 23.8404 8.83045 23.7403V27.1706C8.83045 27.7565 8.29633 28.1996 7.74441 28.0996C9.51768 28.6963 11.4085 29 13.3847 29C15.3574 29 17.2517 28.6963 19.0286 28.0996C18.4766 28.2032 17.9425 27.7565 17.9425 27.1741V21.8644C17.9425 20.646 17.4618 19.549 16.6927 18.7308C22.0196 18.0876 25 15.6507 25 10.0981ZM1.7516 18.6879C1.61273 18.6165 1.53795 18.4842 1.58424 18.3878C1.63053 18.2949 1.78365 18.277 1.92608 18.3485C2.06495 18.4199 2.13972 18.5557 2.09343 18.6486C2.04714 18.7415 1.89403 18.7594 1.7516 18.6879ZM2.85544 19.3775C2.78423 19.4597 2.62399 19.4347 2.50293 19.3239C2.38186 19.2096 2.34269 19.056 2.41391 18.9738C2.48868 18.8916 2.64892 18.9202 2.76998 19.0309C2.89105 19.1417 2.93022 19.2989 2.85544 19.3775ZM3.54268 20.5209C3.45009 20.5888 3.29342 20.5281 3.19372 20.3852C3.09046 20.2422 3.08333 20.0743 3.17948 20.01C3.27206 19.9421 3.42873 20.0028 3.52843 20.1458C3.6317 20.2887 3.63882 20.4566 3.54268 20.5209ZM4.53257 21.3821C4.46848 21.4857 4.29044 21.4893 4.13377 21.3928C3.97709 21.2963 3.89875 21.1355 3.96285 21.0355C4.02694 20.9318 4.20498 20.9283 4.36166 21.0247C4.51833 21.1212 4.59311 21.282 4.53257 21.3821ZM5.4655 22.2253C5.26966 22.2003 5.12723 22.0788 5.14503 21.9538C5.15927 21.8287 5.33019 21.7465 5.52248 21.768C5.71832 21.793 5.86075 21.9145 5.84295 22.0395C5.8287 22.1646 5.65779 22.2503 5.4655 22.2253ZM6.97172 22.4433C6.76163 22.4326 6.6014 22.3147 6.60852 22.1789C6.6192 22.0467 6.79368 21.9466 7.0002 21.9573C7.20673 21.9716 7.36697 22.0895 7.35984 22.2218C7.35272 22.3575 7.17824 22.4576 6.97172 22.4433ZM8.38891 22.3004C8.16814 22.3004 7.9901 22.186 7.9901 22.0431C7.9901 21.9037 8.16814 21.7858 8.38891 21.7858C8.60968 21.7858 8.79128 21.9037 8.79128 22.0431C8.79128 22.186 8.60968 22.3004 8.38891 22.3004Z" fill="white"/>
</svg>
