<svg width="36" height="34" viewBox="0 0 36 34" fill="none" xmlns="http://www.w3.org/2000/svg">
<path d="M24.75 5.66668C24.75 4.10197 23.4068 2.83334 21.75 2.83334C20.0932 2.83334 18.75 4.10197 18.75 5.66668C18.75 6.55493 18.75 12.5666 18.75 13.4583C18.75 15.0231 20.0932 16.2917 21.75 16.2917C23.4068 16.2917 24.75 15.0231 24.75 13.4583C24.75 12.5666 24.75 6.55493 24.75 5.66668Z" fill="#33D375"/>
<path d="M32.25 13.4583C32.25 15.023 30.9068 16.2917 29.25 16.2917C28.3537 16.2917 26.25 16.2917 26.25 16.2917C26.25 16.2917 26.25 14.1766 26.25 13.4583C26.25 11.8936 27.5932 10.625 29.25 10.625C30.9068 10.625 32.25 11.8936 32.25 13.4583Z" fill="#33D375"/>
<path d="M6 9.91666C4.34325 9.91666 3 11.1853 3 12.75C3 14.3147 4.34325 15.5833 6 15.5833C6.9405 15.5833 13.3057 15.5833 14.25 15.5833C15.9067 15.5833 17.25 14.3147 17.25 12.75C17.25 11.1853 15.9067 9.91666 14.25 9.91666C13.3057 9.91666 6.9405 9.91666 6 9.91666Z" fill="#40C4FF"/>
<path d="M14.25 2.83334C15.9068 2.83334 17.25 4.10197 17.25 5.66668C17.25 6.51314 17.25 8.50001 17.25 8.50001C17.25 8.50001 15.0105 8.50001 14.25 8.50001C12.5932 8.50001 11.25 7.23139 11.25 5.66668C11.25 4.10197 12.5932 2.83334 14.25 2.83334Z" fill="#40C4FF"/>
<path d="M10.5 27.6293C10.5 29.1918 11.8432 30.4583 13.5 30.4583C15.1568 30.4583 16.5 29.1918 16.5 27.6293C16.5 26.7424 16.5 20.7393 16.5 19.8489C16.5 18.2863 15.1568 17.0198 13.5 17.0198C11.8432 17.0198 10.5 18.2863 10.5 19.8489C10.5 20.7393 10.5 26.7424 10.5 27.6293Z" fill="#E91E63"/>
<path d="M3 19.8489C3 18.2863 4.34325 17.0198 6 17.0198C6.89625 17.0198 9 17.0198 9 17.0198C9 17.0198 9 19.1314 9 19.8489C9 21.4115 7.65675 22.678 6 22.678C4.34325 22.678 3 21.4115 3 19.8489Z" fill="#E91E63"/>
<path d="M29.25 23.375C30.9067 23.375 32.25 22.1064 32.25 20.5417C32.25 18.977 30.9067 17.7083 29.25 17.7083C28.3095 17.7083 21.9442 17.7083 21 17.7083C19.3432 17.7083 18 18.977 18 20.5417C18 22.1064 19.3432 23.375 21 23.375C21.9435 23.375 28.3095 23.375 29.25 23.375Z" fill="#FFC107"/>
<path d="M21 30.4583C19.3432 30.4583 18 29.1897 18 27.625C18 26.7785 18 24.7917 18 24.7917C18 24.7917 20.2395 24.7917 21 24.7917C22.6568 24.7917 24 26.0603 24 27.625C24 29.1897 22.6568 30.4583 21 30.4583Z" fill="#FFC107"/>
</svg>
