<svg width="703" height="273" viewBox="0 0 703 273" fill="none" xmlns="http://www.w3.org/2000/svg">
    <ellipse cx="649.277" cy="234.603" rx="52.6994" ry="2.55822" fill="#C4C4C4" fill-opacity="0.2"/>
    <path fill-rule="evenodd" clip-rule="evenodd" d="M661.055 65.0244C655.534 65.0244 653.527 58.4151 650.39 54.7881C648.146 52.1931 644.316 52.9669 643.183 49.3339C640.332 40.1984 647.962 33.7687 657.915 33.7687C667.869 33.7687 674.58 39.4078 676.029 47.8848C677.478 56.3618 671.008 65.0244 661.055 65.0244Z" fill="#191847"/>
    <path fill-rule="evenodd" clip-rule="evenodd" d="M660.445 59.1233C662.671 56.5106 664.177 53.3088 663.926 49.7211C663.2 39.384 648.811 41.658 646.011 46.8753C643.212 52.0927 643.545 65.3268 647.163 66.2593C648.605 66.6312 651.679 65.7202 654.807 63.8349L652.843 77.7249H664.436L660.445 59.1233Z" fill="#B28B67"/>
    <path fill-rule="evenodd" clip-rule="evenodd" d="M655.558 52.4735C655.979 52.2506 656.462 52.124 656.975 52.124C658.617 52.124 659.949 53.4216 659.949 55.0223C659.949 55.6756 659.727 56.2784 659.353 56.7631C660.057 57.9245 660.538 59.1448 660.696 60.3993C663.138 60.3993 672.052 51.158 663.172 42.4633C654.292 33.7687 641.46 46.1808 645.316 46.9046C647.533 47.3208 651.998 49.4374 655.558 52.4735Z" fill="#191847"/>
    <path fill-rule="evenodd" clip-rule="evenodd" d="M668.301 117.817L650.124 177.242L641.318 227.779H634.414L643.718 117.817H668.301Z" fill="#997659"/>
    <path fill-rule="evenodd" clip-rule="evenodd" d="M674.803 117.817C673.569 150.444 675.022 167.274 675.298 170.238C675.574 173.203 679.358 192.424 688.316 228.774L680.959 226.247C666.802 192.909 661.978 175.582 660.355 171.205C658.731 166.827 654.419 149.031 647.417 117.817H674.803Z" fill="#B28B67"/>
    <path fill-rule="evenodd" clip-rule="evenodd" d="M688.26 226.211C688.801 227.653 689.071 228.733 689.071 229.449C689.071 230.32 688.926 231.591 688.636 233.262C687.625 233.262 678.544 233.262 661.392 233.262C660.684 230.922 661.092 229.658 662.618 229.471C664.143 229.285 665.41 229.116 666.419 228.966L679.082 223.321C679.326 223.212 679.611 223.322 679.72 223.565C679.722 223.569 679.723 223.574 679.725 223.578L680.539 225.552C681.951 226.211 683.099 226.54 683.981 226.54C684.699 226.54 685.689 226.251 686.953 225.671L686.953 225.671C687.438 225.449 688.012 225.662 688.234 226.147C688.244 226.168 688.252 226.189 688.26 226.211Z" fill="#E4E4E4"/>
    <path fill-rule="evenodd" clip-rule="evenodd" d="M642.855 226.211C643.396 227.653 643.666 228.733 643.666 229.449C643.666 230.32 643.521 231.591 643.23 233.262C642.22 233.262 633.139 233.262 615.986 233.262C615.278 230.922 615.687 229.658 617.212 229.471C618.738 229.285 620.005 229.116 621.014 228.966L633.677 223.321C633.92 223.212 634.206 223.322 634.314 223.565C634.316 223.569 634.318 223.574 634.32 223.578L635.134 225.552C636.546 226.211 637.693 226.54 638.576 226.54C639.293 226.54 640.284 226.251 641.548 225.671L641.548 225.671C642.033 225.449 642.606 225.662 642.829 226.147C642.838 226.168 642.847 226.189 642.855 226.211Z" fill="#E4E4E4"/>
    <path fill-rule="evenodd" clip-rule="evenodd" d="M670.716 117.817L662.987 148.093H639.381L642.901 117.817H670.716Z" fill="#69A1AC"/>
    <path fill-rule="evenodd" clip-rule="evenodd" d="M675.063 117.817C677.606 125.439 678.089 135.531 676.512 148.093H652.423L645.799 117.817H675.063Z" fill="#89C5CC"/>
    <path fill-rule="evenodd" clip-rule="evenodd" d="M625.772 110.147L612.088 123.496C608.107 125.194 604.845 127.07 602.302 129.122C601.73 129.812 601.107 131.133 603.798 130.542C606.489 129.95 609.345 129.449 609.851 130.324C610.357 131.199 608.867 132.54 609.801 133.685C610.424 134.449 612.52 132.02 616.087 126.4L630.316 118.011L625.772 110.147ZM686.507 112.03L676.413 112.07C682.645 132.19 686.01 142.866 686.507 144.097C687.624 146.867 685.259 151.085 684.248 153.352C687.542 154.826 687.191 149.367 691.347 151.301C695.14 153.065 698.025 156.263 702.408 153.559C702.946 153.226 703.537 151.975 702.11 150.996C698.556 148.559 693.435 144.294 692.743 142.89C691.799 140.976 689.72 130.689 686.507 112.03Z" fill="#B28B67"/>
    <path fill-rule="evenodd" clip-rule="evenodd" d="M657.82 69.6735L653.644 68.9571C646.452 86.9213 633.897 103.244 615.978 117.925L629.519 134.376C647.436 113.472 658.48 91.9042 657.82 69.6735Z" fill="#191847"/>
    <path fill-rule="evenodd" clip-rule="evenodd" d="M676.029 122.164H638.835C647.452 101.213 651.76 83.4144 651.76 68.7697L662.98 67.0981C671.797 81.2792 674.288 98.7391 676.029 122.164Z" fill="#DDE3E9"/>
    <path fill-rule="evenodd" clip-rule="evenodd" d="M663.218 67.106C663.216 67.1034 663.215 67.1007 663.213 67.0981H662.481C661.604 67.1283 660.27 67.1826 658.476 67.2612L655.765 75.0087C655.479 84.4547 653.804 103.491 650.741 132.118H675.123C675.059 134.095 674.953 136.09 674.806 138.104H692.935C690.223 107.511 680.32 83.842 663.226 67.0981L663.218 67.106V67.106Z" fill="#2F3676"/>
    <path fill-rule="evenodd" clip-rule="evenodd" d="M673.512 106.82C672.818 119.144 671.081 127.64 668.3 132.308H675.116C675.415 123.441 674.88 114.945 673.512 106.82V106.82Z" fill="black" fill-opacity="0.1"/>
    <path fill-rule="evenodd" clip-rule="evenodd" d="M669.696 117.334L657.673 111.745V117.334H669.696Z" fill="white" fill-opacity="0.2"/>
    <ellipse cx="406.5" cy="246.606" rx="34.5" ry="2.5" fill="#C4C4C4" fill-opacity="0.2"/>
    <path fill-rule="evenodd" clip-rule="evenodd" d="M446.096 41.6073C444.233 48.4725 441.806 63.9037 444.283 66.3243H459.957C459.958 66.2965 459.96 66.2688 459.961 66.2411C465.771 65.5982 470.289 60.6728 470.289 54.692V43.3421C470.289 36.9245 465.087 31.722 458.669 31.722H457.588C451.76 31.722 446.934 36.0125 446.096 41.6073Z" fill="#191847"/>
    <path fill-rule="evenodd" clip-rule="evenodd" d="M464.202 52.525C466.692 49.6017 468.378 46.0192 468.096 42.0049C467.285 30.4385 451.184 32.983 448.052 38.8207C444.92 44.6584 445.292 59.4662 449.34 60.5095C450.954 60.9256 454.393 59.9064 457.893 57.7968L455.696 73.3385H468.667L464.202 52.525Z" fill="#D4A181"/>
    <path fill-rule="evenodd" clip-rule="evenodd" d="M460.696 50.5708C460.098 56.9906 460.337 64.3217 462.118 66.062H477.792C478.665 50.889 470.225 56.7647 470.225 42.4789C469.699 41.9648 469.202 41.4559 468.71 41.017L468.728 40.5969C466.013 35.0406 462.57 32.2625 458.398 32.2625C452.139 32.2625 450.164 35.1747 448.482 37.6472C449.739 41.9629 454.62 42.6029 458.957 45.293C459.469 44.8776 460.121 44.6287 460.831 44.6287C462.472 44.6287 463.803 45.9595 463.803 47.6013C463.803 49.243 462.472 50.5739 460.831 50.5739C460.785 50.5739 460.74 50.5728 460.696 50.5708Z" fill="#191847"/>
    <path fill-rule="evenodd" clip-rule="evenodd" d="M489.525 171.211C476.56 174.838 465.373 176.651 455.966 176.651C446.559 176.651 437.822 173.859 429.753 168.274C442.441 164.552 452.89 162.69 461.101 162.69C469.311 162.69 478.786 165.531 489.525 171.211Z" fill="#1F28CF"/>
    <path fill-rule="evenodd" clip-rule="evenodd" d="M444.742 181.878C444.867 181.69 444.973 181.486 445.057 181.264C446.79 176.681 474.549 127.237 477.315 118.197H446.061C443.959 125.07 434.495 168.202 433.163 176.807C428.961 190.381 420.308 234.342 419.204 237.388C418.042 240.592 424.58 243.929 426.322 239.99C429.094 233.723 435.699 216.382 438.64 205.794C441.397 195.868 443.642 186.937 444.742 181.878Z" fill="#BA8B72"/>
    <path fill-rule="evenodd" clip-rule="evenodd" d="M470.312 187.915C483.003 191.122 529.425 196.921 532.611 197.831C535.888 198.766 538.761 192.012 534.71 190.549C528.265 188.22 510.506 182.841 499.738 180.646C491.077 178.88 483.174 177.439 477.868 176.595C478.318 161.691 480.372 125.923 479.026 118.197H451.372C452.664 125.605 463.581 179.659 465.611 185.069C466.255 187.001 468.176 187.854 470.312 187.915Z" fill="#D4A181"/>
    <path fill-rule="evenodd" clip-rule="evenodd" d="M534.416 188.75C536.111 188.435 537.353 188.347 538.142 188.486C539.102 188.655 540.474 189.062 542.259 189.707C542.063 190.82 540.298 200.827 536.966 219.727C534.249 220.052 532.936 219.357 533.027 217.639C533.117 215.922 533.178 214.493 533.208 213.352L529.448 198.302C529.376 198.013 529.552 197.719 529.842 197.647C529.846 197.646 529.851 197.645 529.856 197.644L532.19 197.13C533.191 195.702 533.777 194.502 533.948 193.529C534.087 192.739 533.961 191.591 533.568 190.086L533.568 190.086C533.417 189.508 533.763 188.918 534.341 188.767C534.366 188.76 534.391 188.755 534.416 188.75Z" fill="#E4E4E4"/>
    <path fill-rule="evenodd" clip-rule="evenodd" d="M428.306 239.48C428.911 241.094 429.213 242.302 429.213 243.103C429.213 244.078 429.051 245.5 428.726 247.37C427.595 247.37 417.434 247.37 398.242 247.37C397.45 244.751 397.907 243.337 399.614 243.129C401.321 242.92 402.739 242.731 403.867 242.563L418.036 236.247C418.309 236.125 418.628 236.248 418.75 236.52C418.752 236.525 418.754 236.53 418.756 236.534L419.666 238.743C421.246 239.481 422.53 239.849 423.518 239.849C424.321 239.849 425.429 239.525 426.843 238.877L426.843 238.877C427.386 238.628 428.027 238.866 428.276 239.409C428.287 239.432 428.297 239.456 428.306 239.48Z" fill="#E4E4E4"/>
    <path fill-rule="evenodd" clip-rule="evenodd" d="M478.936 118.197C466.75 114.711 455.22 114.711 444.346 118.197C440.562 135.459 431.37 142.31 429.753 168.774C448.129 177.905 470.829 162.262 489.745 171.166C495.15 158.712 487.583 128.717 478.936 118.197Z" fill="#2B44FF"/>
    <path fill-rule="evenodd" clip-rule="evenodd" d="M426.51 96.7467L405.171 93.8359C400.902 91.4615 396.975 89.8541 393.39 89.0137C392.381 88.9842 390.776 89.351 393.167 91.3443C395.558 93.3377 397.984 95.5427 397.558 96.6065C397.132 97.6703 394.908 97.2745 394.54 98.9108C394.294 100.002 397.903 100.179 405.366 99.4425L422.681 106.307L426.51 96.7467ZM493.545 101.686L481.71 101.73C494.687 130.934 501.454 146.225 502.01 147.602C503.26 150.702 500.614 155.422 499.482 157.958C503.168 159.608 502.775 153.5 507.425 155.663C511.669 157.637 514.898 161.215 519.801 158.189C520.404 157.817 521.065 156.417 519.469 155.322C515.492 152.596 509.761 147.823 508.987 146.252C507.931 144.11 502.784 129.255 493.545 101.686Z" fill="#D4A181"/>
    <path fill-rule="evenodd" clip-rule="evenodd" d="M461.127 64.1504L451.861 64.7677C449.579 85.4143 437.148 98.4556 409.317 94.0406L405.619 120.629C431.632 123.991 454.445 113.576 459.121 85.3793C460.331 78.0799 461.287 70.4835 461.127 64.1504Z" fill="#AFB9C5"/>
    <path fill-rule="evenodd" clip-rule="evenodd" d="M465.699 61.4566L451.66 64.6721C451.66 88.8199 443.967 104.227 440.022 121.981H477.939C478.474 128.116 478.802 134.421 478.972 140.897H507.364C500.93 106.666 487.351 80.1829 466.626 61.448H465.707L465.699 61.4566Z" fill="#C5CFD6"/>
    <path fill-rule="evenodd" clip-rule="evenodd" d="M471.957 87.5307C472.934 102.578 472.36 114.061 470.233 121.981H477.939C476.881 109.828 475.014 98.3443 471.957 87.5307V87.5307Z" fill="black" fill-opacity="0.1"/>
    <ellipse cx="464.062" cy="261.282" rx="35.3035" ry="2.55822" fill="#C4C4C4" fill-opacity="0.2"/>
    <path fill-rule="evenodd" clip-rule="evenodd" d="M568.537 87.8601C571.248 84.6772 573.084 80.7764 572.777 76.4055C571.893 63.8118 554.362 66.5822 550.952 72.9385C547.542 79.2947 547.947 95.4179 552.355 96.5539C554.112 97.007 557.857 95.8972 561.667 93.6002L559.275 110.522H573.399L568.537 87.8601Z" fill="#915B3C"/>
    <path fill-rule="evenodd" clip-rule="evenodd" d="M569.622 90.6951C571.395 82.8089 576.445 77.4331 575.673 73.9083C575.159 71.5584 573.789 70.0971 571.562 69.5243C570.411 64.8656 566.696 62.884 560.42 63.5797C551.005 64.6232 545.258 68.5331 547.74 77.1368C550.021 77.1368 552.775 76.3118 556.583 77.7253C557.791 78.1737 558.655 79.5645 559.175 81.8976H560.896C562.566 79.1289 564.213 78.1114 565.837 78.8453C567.46 79.5792 567.829 81.3618 566.944 84.193L567.791 90.6951H569.622Z" fill="#191847"/>
    <path fill-rule="evenodd" clip-rule="evenodd" d="M612.827 184.082H545.152C539.952 184.082 535.736 188.298 535.736 193.498V247.638C535.736 252.838 539.952 257.054 545.152 257.054H612.827C618.027 257.054 622.243 252.838 622.243 247.638V193.498C622.243 188.298 618.027 184.082 612.827 184.082ZM603.412 200.56C604.712 200.56 605.765 201.614 605.765 202.914V238.223C605.765 239.523 604.712 240.577 603.412 240.577H554.568C553.268 240.577 552.214 239.523 552.214 238.223V202.914C552.214 201.614 553.268 200.56 554.568 200.56H603.412Z" fill="#C5CFD6"/>
    <path fill-rule="evenodd" clip-rule="evenodd" d="M477.383 254.112C488.986 239.943 496.836 229.44 500.935 222.601C507.952 210.89 513.696 200.471 515.508 196.49C519.831 186.998 505.558 182.554 502.328 186.981C497.439 193.682 486.997 214.768 471.003 250.238L477.383 254.112Z" fill="#B28B67"/>
    <path fill-rule="evenodd" clip-rule="evenodd" d="M501.159 249.992L522.751 195.638C527.37 185.73 505.067 179.217 501.673 183.828C493.968 194.297 475.653 235.594 473.357 238.713L501.159 249.992Z" fill="#2F3676"/>
    <path fill-rule="evenodd" clip-rule="evenodd" d="M558.667 239.092C554.461 232.956 539.162 212.314 530.829 203.774C528.434 201.319 526.098 198.964 523.888 196.768C517.319 190.244 504.238 201.21 510.795 207.154C527.123 221.954 550.948 241.934 552.938 243.716C555.728 246.212 561.311 242.948 558.667 239.092Z" fill="#915B3C"/>
    <path fill-rule="evenodd" clip-rule="evenodd" d="M557.684 236.32C559.133 237.513 560.075 238.487 560.511 239.243C561.042 240.162 561.663 241.591 562.375 243.531C561.309 244.147 551.727 249.679 533.63 260.127C531.458 258.089 531.119 256.507 532.615 255.381C534.111 254.255 535.345 253.305 536.318 252.532L546.239 238.862C546.43 238.599 546.798 238.541 547.061 238.732C547.066 238.735 547.07 238.738 547.074 238.742L549.136 240.329C551.027 240.164 552.438 239.812 553.37 239.275C554.127 238.838 554.995 237.929 555.976 236.548L555.976 236.548C556.352 236.018 557.087 235.893 557.617 236.269C557.64 236.285 557.662 236.302 557.684 236.32Z" fill="#E4E4E4"/>
    <path fill-rule="evenodd" clip-rule="evenodd" d="M482.374 251.994C483.033 253.752 483.362 255.067 483.362 255.939C483.362 257 483.185 258.549 482.831 260.585C481.6 260.585 470.537 260.585 449.64 260.585C448.778 257.733 449.275 256.194 451.134 255.967C452.992 255.739 454.536 255.534 455.765 255.351L471.192 248.473C471.489 248.341 471.837 248.474 471.969 248.771C471.971 248.776 471.974 248.781 471.976 248.787L472.967 251.192C474.688 251.995 476.086 252.396 477.161 252.396C478.035 252.396 479.242 252.043 480.782 251.337L480.782 251.337C481.373 251.066 482.071 251.326 482.342 251.917C482.354 251.942 482.364 251.968 482.374 251.994Z" fill="#E4E4E4"/>
    <path fill-rule="evenodd" clip-rule="evenodd" d="M530.521 198.353C548.468 195.429 560.489 193.43 566.584 192.355C583.958 189.292 589.024 179.943 586.029 159.544H554.018C549.782 160.767 532.081 168.333 500.917 182.241C495.31 185.025 496.354 193.232 497.379 195.936C497.421 196.046 506.873 212.243 525.737 244.527L551.923 227.845L530.472 200.319C529.905 199.178 529.922 198.523 530.521 198.353Z" fill="#5C63AB"/>
    <path fill-rule="evenodd" clip-rule="evenodd" d="M528.215 151.841L509.443 165.625C504.352 166.999 500.098 168.708 496.682 170.753C495.875 171.488 494.9 172.977 498.247 172.719C501.593 172.462 505.124 172.342 505.586 173.483C506.048 174.625 504.023 175.99 504.956 177.53C505.578 178.556 508.518 175.982 513.775 169.807L532.364 162.098L528.215 151.841ZM600.288 152.316L587.99 152.365C595.583 176.877 599.682 189.883 600.288 191.383C601.649 194.758 598.768 199.897 597.535 202.659C601.549 204.455 601.121 197.804 606.184 200.159C610.805 202.309 614.321 206.205 619.66 202.911C620.316 202.505 621.035 200.98 619.297 199.789C614.968 196.82 608.728 191.624 607.885 189.913C606.735 187.581 604.203 175.049 600.288 152.316Z" fill="#915B3C"/>
    <path fill-rule="evenodd" clip-rule="evenodd" d="M565.34 100.714L560.251 99.8408C541.37 116.151 533.616 147.484 510.473 164.083L516.043 170.987C556.192 166.016 566.143 127.797 565.34 100.714Z" fill="#E87613"/>
    <path fill-rule="evenodd" clip-rule="evenodd" d="M587.522 164.663C567.119 164.663 552.11 164.663 542.497 164.663C540.44 164.663 540.827 161.692 541.125 160.193C544.557 142.891 557.956 124.241 557.956 99.6125L570.944 97.5759C581.686 114.853 585.401 136.124 587.522 164.663Z" fill="#DDE3E9"/>
    <path fill-rule="evenodd" clip-rule="evenodd" d="M587.161 114.558C589.047 114.016 590.541 112.751 591.642 110.765C596.389 102.199 594.674 97.4832 589.601 95.9331C584.529 94.3829 580.004 97.576 571.922 97.576C571.482 97.576 571.08 97.6035 570.714 97.6586L566.648 97.8906C554.983 137.425 551.766 163.802 556.997 177.021H592.435C594.535 181.917 596.544 186.036 598.463 189.379H608.119C609.028 159.994 602.042 135.054 587.161 114.558Z" fill="#FF9B21"/>
    <path fill-rule="evenodd" clip-rule="evenodd" d="M584.718 156.717C583.604 166.042 581.792 172.81 579.284 177.021H592.435C589.986 171.31 587.413 164.542 584.718 156.717Z" fill="black" fill-opacity="0.1"/>
    <path d="M320.872 66.6553C339.278 66.6553 354.2 51.734 354.2 33.3276C354.2 14.9213 339.278 0 320.872 0C302.466 0 287.544 14.9213 287.544 33.3276C287.544 51.734 302.466 66.6553 320.872 66.6553Z" fill="#F2F2F2"/>
    <path d="M320.872 8.80358C321.914 8.80358 322.759 7.95898 322.759 6.91711C322.759 5.87524 321.914 5.03064 320.872 5.03064C319.83 5.03064 318.986 5.87524 318.986 6.91711C318.986 7.95898 319.83 8.80358 320.872 8.80358Z" fill="black" fill-opacity="0.1"/>
    <path d="M294.461 35.2142C295.503 35.2142 296.348 34.3696 296.348 33.3277C296.348 32.2858 295.503 31.4412 294.461 31.4412C293.42 31.4412 292.575 32.2858 292.575 33.3277C292.575 34.3696 293.42 35.2142 294.461 35.2142Z" fill="black" fill-opacity="0.1"/>
    <path d="M347.283 35.2142C348.325 35.2142 349.169 34.3696 349.169 33.3277C349.169 32.2858 348.325 31.4412 347.283 31.4412C346.241 31.4412 345.396 32.2858 345.396 33.3277C345.396 34.3696 346.241 35.2142 347.283 35.2142Z" fill="black" fill-opacity="0.1"/>
    <path d="M320.872 61.6247C321.914 61.6247 322.759 60.7801 322.759 59.7383C322.759 58.6964 321.914 57.8518 320.872 57.8518C319.83 57.8518 318.986 58.6964 318.986 59.7383C318.986 60.7801 319.83 61.6247 320.872 61.6247Z" fill="black" fill-opacity="0.1"/>
    <path fill-rule="evenodd" clip-rule="evenodd" d="M320.872 10.6901L322.13 32.6989H319.615L320.872 10.6901Z" fill="#AFB9C5"/>
    <path fill-rule="evenodd" clip-rule="evenodd" d="M332.001 44.457L320.441 34.6748L322.219 32.8962L332.001 44.457Z" fill="#AFB9C5"/>
    <path d="M320.872 35.843C322.261 35.843 323.388 34.7168 323.388 33.3277C323.388 31.9385 322.261 30.8124 320.872 30.8124C319.483 30.8124 318.357 31.9385 318.357 33.3277C318.357 34.7168 319.483 35.843 320.872 35.843Z" fill="#C5CFD6"/>
    <ellipse cx="23.5357" cy="248.148" rx="21.4891" ry="2.55822" fill="#C4C4C4" fill-opacity="0.2"/>
    <path opacity="0.5" fill-rule="evenodd" clip-rule="evenodd" d="M39.3495 155.653C40.2773 154.33 41.9991 150.97 43.305 150.497C44.1461 150.193 43.9008 153.342 43.9112 153.943C43.9517 156.266 43.7255 158.575 43.4461 160.879C42.9429 165.035 41.2972 168.735 39.0401 172.272C37.8787 174.091 36.5164 175.933 34.6296 177.069C33.761 177.592 32.716 177.679 31.8583 178.13C30.8593 178.654 31.4034 178.23 30.9532 179.271C30.328 180.716 30.128 182.581 29.8388 184.123C28.5106 191.202 25.2952 228.623 25.8527 235.824C25.9022 236.462 25.0122 236.615 24.9678 235.836C24.7317 231.705 26.775 203.095 27.8059 193.739C28.8368 184.383 29.88 176.118 30.926 172.881C32.195 168.954 34.4869 164.231 36.3947 160.569C37.2809 158.868 38.2468 157.225 39.3495 155.653Z" fill="#69A1AC"/>
    <path opacity="0.5" fill-rule="evenodd" clip-rule="evenodd" d="M46.2365 201.54C48.6508 199.768 51.2641 203.113 49.0794 204.886C47.8716 205.865 46.609 205.517 45.8981 204.7C45.4367 205.263 45.0048 205.851 44.5898 206.348C43.3254 207.861 42.1304 209.411 40.9883 210.997C38.6157 214.292 36.5824 217.773 34.4565 221.19C32.3586 224.563 30.2773 227.953 28.3758 231.411C26.7648 234.341 24.6177 237.788 24.0662 241C24.903 234.188 28.0783 227.64 31.8596 221.635C35.6101 215.678 39.9142 209.174 45.7213 204.473C45.1303 203.604 45.1139 202.364 46.2365 201.54Z" fill="#C1DEE2"/>
    <path opacity="0.5" fill-rule="evenodd" clip-rule="evenodd" d="M0.422412 184.926C1.77347 185.191 3.98109 188.247 5.09476 189.411C6.41829 190.795 7.61906 192.27 8.75093 193.816C11.1876 197.142 13.3668 200.679 15.2198 204.367C18.2408 210.379 20.6609 216.551 22.4174 223.098C23.4925 227.105 24.1887 231.259 24.6012 235.384C24.6791 236.162 25.4947 242.16 24.3195 242.321C23.2625 242.467 23.589 237.767 23.538 237.128C22.9616 229.916 21.2348 222.898 18.8329 216.101C18.3098 214.62 17.8237 212.806 16.9871 211.473C16.3845 210.514 16.9827 210.848 15.9239 210.485C15.0147 210.173 13.9788 210.249 13.0478 209.867C11.0252 209.038 9.40572 207.428 7.98612 205.808C5.22734 202.66 3.04114 199.255 1.90157 195.222C1.26942 192.985 0.688498 190.736 0.366124 188.43C0.282732 187.835 -0.447795 184.756 0.422412 184.926Z" fill="#69A1AC"/>
    <path opacity="0.5" fill-rule="evenodd" clip-rule="evenodd" d="M5.754 134.075C10.8432 142.901 15.0252 152.596 17.7256 162.416C19.3617 168.365 20.5059 174.471 21.6427 180.532C23.4029 189.916 25.0679 199.3 25.5415 208.852C26.0179 218.459 26.9601 229.539 23.8144 238.792C25.3857 229.398 23.8897 219.398 23.6248 209.946C23.4982 205.433 23.1314 200.965 22.6503 196.479C22.1833 192.127 21.4205 187.796 20.7101 183.479C20.3641 181.376 20.0007 179.276 19.6307 177.178C19.5202 176.552 19.4735 174.694 19.0764 174.266C18.6767 173.836 16.6373 173.66 15.997 173.345C14.7078 172.708 13.495 171.805 12.4217 170.85C10.3642 169.019 8.5742 166.627 7.16142 164.27C3.8926 158.814 2.58573 152.157 2.65179 145.839C2.66448 144.612 4.63726 131.403 3.84496 131.221C3.89266 131.165 3.93779 131.107 3.98034 131.047C4.58017 132.051 5.16879 133.063 5.754 134.075Z" fill="#89C5CC"/>
    <path opacity="0.5" fill-rule="evenodd" clip-rule="evenodd" d="M60.6828 165.907C60.7613 165.794 61.2724 165.006 61.015 165.056C61.539 164.954 60.2943 165.925 61.5999 165.329C60.98 165.914 61.3377 166.675 61.346 167.463C61.3595 168.742 61.1455 170.011 60.9045 171.263C60.5238 173.242 59.9566 175.166 59.1333 177.006C57.339 181.017 54.2921 184.879 50.6749 187.386C48.8892 188.624 47.1391 189.046 45.1025 189.616C43.8161 189.976 43.7141 190.641 43.0312 191.89C41.6096 194.49 40.2133 197.08 38.9596 199.768C37.4626 202.977 36.0093 206.19 34.6385 209.456C30.0204 220.457 26.2616 231.854 24.2877 243.649C24.2394 236.699 25.8473 229.54 27.8756 222.915C29.353 218.088 31.2764 213.435 33.3279 208.829C33.825 207.713 34.5783 206.277 34.7894 205.045C34.9373 204.182 34.4853 203.352 34.2784 202.443C33.4718 198.902 33.5295 194.935 34.2379 191.375C35.0189 187.45 37.2776 185.628 41.0986 185.072C42.496 184.869 44.2721 184.943 45.5535 184.347C46.9495 183.699 47.5253 181.566 48.3192 180.197C50.4513 176.519 52.9847 172.992 55.8936 169.894C56.6991 169.036 57.5653 168.244 58.4842 167.51C59.0637 167.047 60.2878 166.477 60.6828 165.907Z" fill="#89C5CC"/>
    <path opacity="0.5" fill-rule="evenodd" clip-rule="evenodd" d="M17.838 236.142H31.3982C32.0079 236.142 32.5021 236.637 32.5021 237.246C32.5021 237.3 32.4982 237.354 32.4903 237.407L31.4422 244.514C31.1227 246.681 29.2636 248.286 27.0737 248.286H22.1624C19.9725 248.286 18.1134 246.681 17.7939 244.514L16.7458 237.407C16.6569 236.804 17.0737 236.243 17.6769 236.154C17.7302 236.146 17.7841 236.142 17.838 236.142Z" fill="#C1DEE2"/>
    <ellipse cx="108.469" cy="245.347" rx="49.1179" ry="3.06987" fill="#C4C4C4" fill-opacity="0.2"/>
    <path fill-rule="evenodd" clip-rule="evenodd" d="M127.052 60.5105C125.497 57.2403 124.836 53.566 126.072 49.9785C129.634 39.642 143.678 45.8888 145.106 51.9701C146.533 58.0513 142.581 71.4474 138.639 71.4098C137.068 71.3949 134.184 69.6273 131.511 66.8518L129.719 81.5432L117.905 78.3775L127.052 60.5105Z" fill="#B28B67"/>
    <path fill-rule="evenodd" clip-rule="evenodd" d="M143.382 47.7507C143.155 47.5166 142.68 47.0243 142.426 46.8239C142.366 46.776 141.982 46.3096 141.968 46.3105C141.576 46.3355 140.414 46.5045 140.221 46.8678C140.199 46.8934 140.178 46.9173 140.158 46.9378C139.939 47.1667 139.729 47.4054 139.526 47.6492C139.078 48.1844 138.662 48.7575 138.259 49.3286C137.473 50.4408 136.739 51.5977 136.036 52.7661C135.32 53.9555 134.657 55.1749 133.958 56.3745C132.953 58.1007 131.818 59.7433 130.817 61.4697C130.177 62.572 129.677 63.7264 129.433 64.9721C129.43 64.9871 129.427 65.0017 129.424 65.017C129.423 65.0232 129.422 65.0295 129.421 65.0358C129.385 65.2276 129.355 65.4216 129.331 65.6179C129.312 65.7859 129.292 65.9546 129.274 66.1236C129.979 65.3309 130.6 64.4157 131.229 63.5577C131.29 63.4737 131.35 63.3885 131.41 63.3029C131.582 63.1408 131.756 62.9807 131.931 62.8217C133.036 61.8193 134.142 60.8222 135.221 59.7892C137.161 57.9315 139.1 56.0234 141.241 54.4138C141.874 53.9385 142.514 53.4753 143.142 52.9935C143.499 52.7193 143.851 52.4375 144.196 52.1472C144.443 51.9396 145.457 51.2572 145.319 50.6472C145.249 50.3351 143.972 48.3578 143.382 47.7507Z" fill="#2C2C2C"/>
    <path fill-rule="evenodd" clip-rule="evenodd" d="M142.5 46.8914C142.739 47.0503 142.758 46.4684 142.555 46.2074C141.613 44.9982 137.185 43.4646 133.038 43.2274C130.26 43.0686 126.835 43.6082 124.264 44.7931C121.947 45.8613 119.967 48.0384 118.642 50.2995C117.25 52.6737 116.428 55.3172 116.116 58.0505C116.047 58.6509 116.085 59.2507 116.037 59.8435C115.983 60.5109 115.878 61.1396 115.92 61.8142C115.945 62.2272 116.061 62.6566 116.067 63.0668C116.074 63.5348 115.891 63.917 115.683 64.3353C115.343 65.017 114.968 65.6878 114.524 66.3071C113.858 67.237 113.127 68.0792 112.544 69.073C111.768 70.3955 108.877 74.601 109.74 76.1898L132.639 82.3256C132.484 80.5982 131.249 78.2833 131.35 76.5057C131.41 75.4585 131.892 73.2661 131.891 73.1816C132.328 69.4861 131.776 67.5174 131.31 66.7318C130.844 65.9463 130.054 65.5315 130.154 64.9851C130.568 62.7254 132.015 60.8419 133.213 58.9506C134.641 56.6964 135.88 54.3262 137.329 52.0867C137.971 51.0951 141.257 46.0661 142.5 46.8914Z" fill="#8991DC"/>
    <path fill-rule="evenodd" clip-rule="evenodd" d="M133.789 47.2845C132.192 49.7931 131.614 51.2058 130.797 54.9993L130.373 54.8858C130.529 51.1408 132.124 48.0037 133.257 47.1419L133.789 47.2845ZM120.31 51.2514C120.873 55.5872 120.989 58.0895 124.636 62.4533L124.224 62.6033C120.44 58.8798 119.949 55.516 119.928 51.3233L120.31 51.2514ZM127.986 49.0495C127.232 54.7875 126.597 58.0104 128.78 65.0931L128.342 65.1084C125.838 58.7799 126.371 54.3052 127.6 48.9786L127.986 49.0495ZM119.369 64.3856L119.829 64.0571C124.161 66.8057 122.815 69.7228 127.942 74.416L127.363 74.5842C122.724 71.0341 122.742 66.0907 119.369 64.3856Z" fill="black" fill-opacity="0.2"/>
    <path fill-rule="evenodd" clip-rule="evenodd" d="M102.985 123.422C103.904 135.964 163.102 172.888 163.447 173.924C163.6 174.384 157.458 188.94 145.021 217.589L150.196 219.6C169.273 189.258 178.321 172.47 177.341 169.237C175.939 164.608 160.628 149.381 131.411 123.556L102.985 123.422Z" fill="#B28B67"/>
    <path fill-rule="evenodd" clip-rule="evenodd" d="M146.383 211.119L154.831 214.195C172.646 194.094 179.629 177.509 178.356 169.058C177.507 163.425 162.25 148.223 132.584 123.453L102.379 123.453C103.41 152.497 158.278 174.034 159.012 175.272C159.746 176.51 152.524 188.632 146.383 211.119Z" fill="#2F3676"/>
    <path fill-rule="evenodd" clip-rule="evenodd" d="M143.117 216.602C142.061 217.837 141.404 218.809 141.145 219.519C140.831 220.383 140.516 221.696 140.201 223.457C141.203 223.822 150.206 227.099 167.211 233.288C168.757 231.223 168.808 229.823 167.363 229.087C165.918 228.352 164.723 227.728 163.777 227.214L153.26 217.048C153.057 216.853 152.735 216.858 152.539 217.061C152.536 217.064 152.533 217.068 152.529 217.071L151.01 218.735C149.372 218.879 148.116 218.791 147.24 218.473C146.529 218.214 145.652 217.569 144.608 216.539L144.608 216.539C144.207 216.143 143.562 216.147 143.166 216.548C143.149 216.565 143.133 216.583 143.117 216.602Z" fill="#E4E4E4"/>
    <path fill-rule="evenodd" clip-rule="evenodd" d="M109.791 123.422L83.42 186.731L57.5015 240.253H63.6165L130.519 123.422H109.791Z" fill="#997659"/>
    <path fill-rule="evenodd" clip-rule="evenodd" d="M57.1362 237.783C56.5661 239.305 56.281 240.443 56.281 241.199C56.281 242.118 56.4341 243.459 56.7403 245.222C57.8064 245.222 67.3876 245.222 85.484 245.222C86.2309 242.753 85.7997 241.42 84.1904 241.223C82.5811 241.026 81.2443 240.848 80.1798 240.689L66.82 234.734C66.5629 234.619 66.2616 234.734 66.147 234.992C66.1451 234.996 66.1432 235 66.1413 235.005L65.2826 237.088C63.7928 237.783 62.5822 238.131 61.6507 238.131C60.894 238.131 59.8489 237.825 58.5154 237.214L58.5154 237.214C58.0037 236.979 57.3987 237.204 57.1642 237.715C57.1541 237.738 57.1447 237.76 57.1362 237.783Z" fill="#E4E4E4"/>
    <path fill-rule="evenodd" clip-rule="evenodd" d="M59.8425 229.135L73.4302 231.683C83.9361 216.237 127.904 152.905 132.725 123.422H102.475C86.3767 144.735 69.8569 213.434 59.8425 229.135Z" fill="#5C63AB"/>
    <path fill-rule="evenodd" clip-rule="evenodd" d="M153.506 121.217L165.278 137.593C169.103 140.087 172.149 142.633 174.416 145.231C174.883 146.053 175.288 147.54 172.601 146.433C169.914 145.325 167.037 144.281 166.351 145.098C165.666 145.914 166.968 147.58 165.787 148.599C165 149.278 163.268 146.371 160.591 139.878L147.343 128.555L153.506 121.217ZM90.0566 112.046L100.537 113.937C90.3753 133.7 84.9234 144.176 84.1817 145.364C82.5129 148.037 84.1976 152.854 84.8332 155.394C81.1403 156.322 82.5051 150.714 77.8331 151.962C73.5687 153.101 69.9849 155.894 65.9269 152.282C65.428 151.838 65.0438 150.429 66.7052 149.674C70.8444 147.793 76.9473 144.3 77.9235 142.968C79.2547 141.152 83.2991 130.844 90.0566 112.046Z" fill="#B28B67"/>
    <path fill-rule="evenodd" clip-rule="evenodd" d="M127.622 73.2925L132.093 73.3133C136.274 93.2959 146.328 112.556 162.257 131.093L145.174 145.704C130.388 120.702 122.864 96.2696 127.622 73.2925Z" fill="#191847"/>
    <path fill-rule="evenodd" clip-rule="evenodd" d="M99.0873 124.495L137.732 131.309C132.618 107.961 131.402 88.6796 134.085 73.4636L122.734 69.6712C110.974 82.7902 105.188 100.475 99.0873 124.495Z" fill="#DDE3E9"/>
    <path fill-rule="evenodd" clip-rule="evenodd" d="M122.485 69.6359C122.487 69.6334 122.489 69.631 122.491 69.6285L123.252 69.7626C124.157 69.9546 125.534 70.2556 127.383 70.6657L128.78 79.2122C127.348 89.0793 125.6 109.165 123.538 139.47L98.205 135.003C97.9092 137.069 97.6531 139.161 97.4367 141.281L78.6008 137.96C87.0233 106.669 101.649 83.8915 122.477 69.626L122.485 69.6359L122.485 69.6359Z" fill="#2F3676"/>
    <path fill-rule="evenodd" clip-rule="evenodd" d="M104.513 109.013C102.976 121.945 103.225 131.091 105.259 136.45L98.1766 135.202C99.4911 125.934 101.603 117.204 104.513 109.013L104.513 109.013Z" fill="black" fill-opacity="0.1"/>
    <path fill-rule="evenodd" clip-rule="evenodd" d="M106.552 120.636L120.068 117.032L119.044 122.839L106.552 120.636Z" fill="white" fill-opacity="0.2"/>
    <ellipse cx="226.147" cy="269.906" rx="60.3741" ry="3.06987" fill="#C4C4C4" fill-opacity="0.2"/>
    <path fill-rule="evenodd" clip-rule="evenodd" d="M216.037 56.3448C219.667 62.5128 226.202 77.1348 224.379 80.1789L208.893 84.3284C208.884 84.3014 208.875 84.2744 208.866 84.2475C202.956 85.1503 197.188 81.48 195.605 75.5709L192.681 64.6593C190.982 58.3186 194.745 51.801 201.086 50.102L202.154 49.8158C207.841 48.292 213.67 51.1619 216.037 56.3448Z" fill="#191847"/>
    <path fill-rule="evenodd" clip-rule="evenodd" d="M201.077 71.9388C197.85 69.7354 195.244 66.6734 194.469 62.6677C192.236 51.1261 208.812 49.3553 213.438 54.2429C218.064 59.1305 221.582 73.7301 217.856 75.8234C216.371 76.6582 212.706 76.5705 208.694 75.4312L214.943 90.0693L202.127 93.5033L201.077 71.9388Z" fill="#B28B67"/>
    <path fill-rule="evenodd" clip-rule="evenodd" d="M204.03 69.0971C206.305 75.2256 207.992 82.4683 206.689 84.644L191.203 88.7935C186.358 74.166 196.239 77.6856 192.49 63.6957C192.875 63.053 193.233 62.423 193.604 61.863L193.477 61.4562C194.7 55.2965 197.373 51.6643 201.496 50.5597C207.679 48.9028 210.396 51.2317 212.706 53.2077C212.596 57.767 207.941 59.6858 204.362 63.4684C203.748 63.197 203.038 63.1258 202.337 63.3138C200.715 63.7484 199.749 65.4041 200.18 67.0118C200.611 68.6195 202.275 69.5704 203.897 69.1358C203.942 69.1238 203.986 69.1109 204.03 69.0971Z" fill="#191847"/>
    <path fill-rule="evenodd" clip-rule="evenodd" d="M188.131 192.153C201.393 195.848 212.835 197.696 222.458 197.696C232.08 197.696 241.017 194.851 249.27 189.16C236.292 185.367 225.604 183.471 217.206 183.471C208.808 183.471 199.116 186.365 188.131 192.153Z" fill="#1F28CF"/>
    <path fill-rule="evenodd" clip-rule="evenodd" d="M233.939 203.022C233.811 202.831 233.703 202.622 233.617 202.397C231.844 197.727 203.45 147.347 200.621 138.136H232.589C234.74 145.139 244.421 189.087 245.783 197.855C250.081 211.686 258.932 256.479 260.061 259.583C261.25 262.847 254.562 266.248 252.78 262.234C249.945 255.849 243.189 238.179 240.18 227.391C237.36 217.276 235.064 208.177 233.939 203.022Z" fill="#997659"/>
    <path fill-rule="evenodd" clip-rule="evenodd" d="M207.784 209.173C194.802 212.441 147.318 218.35 144.06 219.277C140.708 220.23 137.769 213.347 141.912 211.857C148.504 209.484 166.67 204.003 177.684 201.766C186.543 199.967 194.627 198.499 200.055 197.639C199.595 182.453 197.493 146.007 198.871 138.136H227.157C225.836 145.684 214.668 200.761 212.593 206.274C211.934 208.242 209.968 209.112 207.784 209.173Z" fill="#B28B67"/>
    <path fill-rule="evenodd" clip-rule="evenodd" d="M142.171 209.975C140.437 209.653 139.167 209.563 138.36 209.705C137.378 209.878 135.974 210.294 134.148 210.953C134.349 212.092 136.154 222.328 139.563 241.661C142.342 241.994 143.685 241.282 143.592 239.525C143.499 237.769 143.437 236.307 143.406 235.14L147.252 219.746C147.326 219.45 147.146 219.15 146.85 219.076C146.845 219.074 146.84 219.073 146.835 219.072L144.447 218.547C143.424 217.086 142.825 215.858 142.649 214.863C142.507 214.055 142.636 212.881 143.038 211.341L143.038 211.341C143.192 210.75 142.838 210.146 142.248 209.992C142.222 209.985 142.196 209.98 142.171 209.975Z" fill="#E4E4E4"/>
    <path fill-rule="evenodd" clip-rule="evenodd" d="M250.751 261.769C250.132 263.42 249.823 264.655 249.823 265.475C249.823 266.472 249.989 267.927 250.321 269.839C251.478 269.839 261.872 269.839 281.503 269.839C282.313 267.16 281.845 265.714 280.099 265.501C278.354 265.287 276.903 265.094 275.749 264.922L261.256 258.461C260.977 258.337 260.65 258.462 260.526 258.741C260.524 258.746 260.522 258.751 260.52 258.755L259.588 261.015C257.972 261.769 256.659 262.146 255.648 262.146C254.827 262.146 253.694 261.815 252.247 261.152L252.247 261.152C251.692 260.897 251.036 261.141 250.781 261.696C250.77 261.72 250.76 261.744 250.751 261.769Z" fill="#E4E4E4"/>
    <path fill-rule="evenodd" clip-rule="evenodd" d="M198.962 138.136C211.427 134.583 223.221 134.583 234.344 138.136C238.214 155.724 247.617 162.705 249.27 189.67C230.474 198.973 207.255 183.035 187.905 192.108C182.377 179.417 190.117 148.855 198.962 138.136Z" fill="#2B44FF"/>
    <path fill-rule="evenodd" clip-rule="evenodd" d="M228.452 101.712L245.533 88.0808C248.021 83.8134 250.609 80.3835 253.297 77.7911C254.16 77.2396 255.749 76.7179 254.699 79.6786C253.65 82.6392 252.68 85.8002 253.602 86.4926C254.525 87.185 256.257 85.685 257.426 86.8996C258.206 87.7094 255.154 89.7438 248.27 93.003L236.745 107.935L228.452 101.712ZM259.581 105.183L267.082 99.1816C267.469 94.5662 268.47 92.1018 270.085 91.7886C271.228 90.993 270.043 96.9476 272.317 96.0484C274.591 95.1493 279.597 89.8731 280.741 90.5633C282.435 91.5844 281.819 95.7453 280.622 97.9721C278.384 102.134 276.219 103.804 270.61 106.481C267.677 107.88 264.646 110.182 261.515 113.389L259.581 105.183Z" fill="#997659"/>
    <path fill-rule="evenodd" clip-rule="evenodd" d="M218.845 101.04C225.451 99.8038 234.033 96.8563 242.402 89.247L247.548 96.8024C242.182 104.363 233.977 111.245 225.951 112.43C219.626 113.364 215.073 106.355 218.845 101.04Z" fill="#2026A2"/>
    <path fill-rule="evenodd" clip-rule="evenodd" d="M230.078 112.632C237.413 113.136 248.834 109.002 264.342 100.229C269.934 107.951 272.892 113.638 273.217 117.29C260.328 127.167 248.746 132.6 238.765 134.584C240.126 140.443 240.395 146.2 238.871 151.772C235.738 163.228 204.748 158.595 195.249 162.257C185.576 143.431 196.063 133.238 193.826 120.496C191.376 106.541 198.848 83.0797 200.505 82.7877L215.611 80.124C218.323 90.6328 224.589 101.637 230.078 112.632Z" fill="#1F28CF"/>
    <ellipse cx="333.592" cy="254.799" rx="35.8151" ry="2.04658" fill="#C4C4C4" fill-opacity="0.5"/>
    <path d="M341.515 212.55H328.779C328.365 212.55 328.03 212.885 328.03 213.299V215.172C328.03 215.585 328.365 215.921 328.779 215.921H341.515C341.929 215.921 342.264 215.585 342.264 215.172V213.299C342.264 212.885 341.929 212.55 341.515 212.55Z" fill="#AFB9C5"/>
    <path fill-rule="evenodd" clip-rule="evenodd" d="M331.776 201.687C333.384 196.475 334.285 190.981 334.479 185.205H335.522H336.19C336.384 190.981 337.285 196.475 338.893 201.687H341.328C344.534 201.687 347.134 204.286 347.134 207.493C347.134 210.699 344.534 213.299 341.328 213.299H328.966C325.76 213.299 323.16 210.699 323.16 207.493C323.16 204.286 325.76 201.687 328.966 201.687H331.776Z" fill="#DDE3E9"/>
    <path fill-rule="evenodd" clip-rule="evenodd" d="M321.895 159.239C326.188 158.82 330.48 158.61 334.772 158.61C339.065 158.61 343.357 158.82 347.65 159.239L349.381 189.001C344.512 189.467 339.642 189.7 334.772 189.7C329.903 189.7 325.033 189.467 320.164 189.001L321.895 159.239Z" fill="#C5CFD6"/>
    <path fill-rule="evenodd" clip-rule="evenodd" d="M319.415 215.921H350.505H358.372V254.877H350.505V224.162H319.415V254.877H311.549V215.921H319.415Z" fill="#F2F2F2"/>
    </svg>
    