<svg xmlns="http://www.w3.org/2000/svg" viewBox="0 0 1218.06 1080"><defs><style>.cls-1{fill:#22257b;}</style></defs><title>Colored-Horizontal</title><g id="Layer_2_copy" data-name="Layer 2 copy"><polygon class="cls-1" points="209.84 490.66 298.94 433.24 298.94 472.84 257.36 502.54 245.95 496.08 289.04 466.9 289.04 451.06 223.7 496.6 298.94 548.08 298.94 591.64 209.84 534.22 209.84 518.38 287.06 569.86 287.06 554.02 209.84 502.54 209.84 490.66"/><polygon class="cls-1" points="388.04 589.34 298.94 646.76 298.94 607.16 340.52 577.46 351.93 583.92 308.84 613.1 308.84 628.94 374.18 583.4 298.94 531.92 298.94 488.36 388.04 545.78 388.04 561.62 310.82 510.14 310.82 525.98 388.04 577.46 388.04 589.34"/><path class="cls-1" d="M497.47,488.63c-2.35-12.22-12.44-19-24.47-19-16.28,0-28.45,12.58-28.45,35.49,0,23.1,12.22,35.5,28.4,35.5,11.94,0,22.08-6.64,24.52-18.72l14.38.05c-3.08,18.67-18.25,31.67-39,31.67-24.53,0-42.46-18.3-42.46-48.5s18-48.49,42.46-48.49c20,0,35.77,11.8,39,32Z"/><path class="cls-1" d="M521.36,517.26c0-22,13-36.65,33-36.65s33,14.61,33,36.65-13,36.5-33,36.5S521.36,539.15,521.36,517.26Zm52.09,0c0-13.55-6.08-25.08-19-25.08s-19.13,11.53-19.13,25.08,6.08,25,19.13,25S573.45,530.81,573.45,517.21Z"/><path class="cls-1" d="M596.38,517.07c0-23,12.58-36.46,29.69-36.46,13.18,0,17.88,8,20.37,12.4h.83V457.93h13.78v94.41H647.59v-11h-1.15c-2.49,4.52-7.56,12.4-20.47,12.4C608.78,553.72,596.38,540,596.38,517.07Zm51.12-.14c0-14.79-6.45-24.61-18.48-24.61-12.45,0-18.72,10.55-18.72,24.61s6.41,25,18.72,25C640.91,542,647.5,531.82,647.5,516.93Z"/><path class="cls-1" d="M674.25,517.39c0-21.75,13-36.78,32.73-36.78,16,0,31.35,10,31.35,35.59v4.88H688c.37,13.65,8.3,21.3,20.1,21.3,7.84,0,13.83-3.41,16.32-10.1l13,2.35c-3.13,11.53-14.06,19.13-29.5,19.13C687.07,553.76,674.25,539.38,674.25,517.39Zm50.57-6.63c0-10.84-7.05-18.76-17.75-18.76-11.2,0-18.48,8.71-19,18.76Z"/><path class="cls-1" d="M795.27,481.53H809.1v70.81H795.55V540.07h-.74c-3.27,7.56-10.51,13.19-21.16,13.19-13.59,0-23.23-9.13-23.23-26.69v-45H764.2v43.38c0,9.63,5.91,15.81,14.43,15.81,7.75,0,16.69-5.72,16.64-17.75Z"/><path class="cls-1" d="M822.58,462.4a8.73,8.73,0,0,1,17.43,0c0,4.52-4,8.21-8.72,8.21A8.49,8.49,0,0,1,822.58,462.4Zm1.75,19.13h13.79v70.81H824.33Z"/><path class="cls-1" d="M867.18,552.34H853.4V481.53h13.23v11.53h.87c3.27-7.52,10.23-12.45,20.88-12.45,14.48,0,24.11,9.17,24.11,26.69v45H898.71V509c0-10.28-5.67-16.41-15-16.41-9.59,0-16.5,6.45-16.5,17.75Z"/><path class="cls-1" d="M924.49,517.26c0-22,13-36.65,33-36.65s33,14.61,33,36.65-13,36.5-33,36.5S924.49,539.15,924.49,517.26Zm52.09,0c0-13.55-6.08-25.08-19-25.08s-19.13,11.53-19.13,25.08,6.09,25,19.13,25S976.58,530.81,976.58,517.21Z"/><path class="cls-1" d="M462.26,593.44c-.76-4.35-4.23-6.86-8.66-6.86-6,0-10.16,4.57-10.16,12.79s4.23,12.79,10.14,12.79c4.36,0,7.85-2.4,8.68-6.67l6.66,0c-1,7-6.76,12.56-15.43,12.56-9.61,0-16.69-7-16.69-18.72s7.17-18.72,16.69-18.72c8.08,0,14.31,4.7,15.43,12.79Z"/><path class="cls-1" d="M497.58,618.09c-9.58,0-16.75-7-16.75-18.72s7.17-18.72,16.75-18.72,16.74,6.94,16.74,18.72S507.13,618.09,497.58,618.09Zm0-31.51c-5.93,0-10.11,4.5-10.11,12.79s4.18,12.79,10.11,12.79,10.1-4.5,10.1-12.79S503.52,586.58,497.58,586.58Z"/><path class="cls-1" d="M535.43,581.15l10.82,26.4h.43l10.82-26.4h8.07v36.44h-6.33v-25h-.34l-10.07,24.93H544.1L534,592.5h-.34v25.09h-6.33V581.15Z"/><path class="cls-1" d="M588.29,581.15l10.82,26.4h.43l10.82-26.4h8.07v36.44H612.1v-25h-.34l-10.07,24.93H597l-10.07-25h-.34v25.09h-6.33V581.15Z"/><path class="cls-1" d="M662.65,581.15v24.09c0,8.26-6.37,12.9-14.79,12.9s-14.78-4.64-14.78-12.9V581.15h6.6v23.93c0,4.5,3.61,7.12,8.18,7.12s8.2-2.62,8.2-7.12V581.15Z"/><path class="cls-1" d="M706.55,617.59h-5.87l-17.17-24.82h-.3v24.82h-6.6V581.15h5.91L699.67,606H700V581.15h6.56Z"/><path class="cls-1" d="M727.1,617.59h-6.6V581.15h6.6Z"/><path class="cls-1" d="M739.44,581.15h29.07v5.53H757.25v30.91H750.7V586.68H739.44Z"/><path class="cls-1" d="M785.84,581.15l8.91,16.12h.36L804,581.15h7.45L798.22,604v13.59h-6.58V604l-13.26-22.85Z"/></g></svg>